STARTFONT 2.1
COMMENT Converted from Superstar M54.ttf at pixel size 36
FONT -misc-superstar-medium-r-normal--36-360-72-72-p-0-iso10646-1
SIZE 36 72 72
FONTBOUNDINGBOX 26 29 0 -1
STARTPROPERTIES 3
FONT_ASCENT 36
FONT_DESCENT 8
FAMILY_NAME "Superstar"
ENDPROPERTIES
CHARS 95
STARTCHAR space
ENCODING 32
SWIDTH 250 0
DWIDTH 9 0
BBX 9 0 0 0
BITMAP
ENDCHAR
STARTCHAR !
ENCODING 33
SWIDTH 55 0
DWIDTH 2 0
BBX 2 0 0 0
BITMAP
ENDCHAR
STARTCHAR "
ENCODING 34
SWIDTH 55 0
DWIDTH 2 0
BBX 2 0 0 0
BITMAP
ENDCHAR
STARTCHAR #
ENCODING 35
SWIDTH 55 0
DWIDTH 2 0
BBX 2 0 0 0
BITMAP
ENDCHAR
STARTCHAR $
ENCODING 36
SWIDTH 472 0
DWIDTH 17 0
BBX 15 28 1 0
BITMAP
1FF8
7FFC
FFFE
FFFE
FFFE
F83E
F83E
F83E
F800
FC00
FE00
FF80
7FC0
3FE0
0FF8
07FC
01FE
00FE
007E
003E
F83E
F83E
F83E
FFFE
FFFE
FFFE
7FFC
1FF8
ENDCHAR
STARTCHAR %
ENCODING 37
SWIDTH 55 0
DWIDTH 2 0
BBX 2 0 0 0
BITMAP
ENDCHAR
STARTCHAR &
ENCODING 38
SWIDTH 55 0
DWIDTH 2 0
BBX 2 0 0 0
BITMAP
ENDCHAR
STARTCHAR '
ENCODING 39
SWIDTH 55 0
DWIDTH 2 0
BBX 2 0 0 0
BITMAP
ENDCHAR
STARTCHAR (
ENCODING 40
SWIDTH 555 0
DWIDTH 20 0
BBX 20 0 0 0
BITMAP
ENDCHAR
STARTCHAR )
ENCODING 41
SWIDTH 527 0
DWIDTH 19 0
BBX 19 0 0 0
BITMAP
ENDCHAR
STARTCHAR *
ENCODING 42
SWIDTH 55 0
DWIDTH 2 0
BBX 2 0 0 0
BITMAP
ENDCHAR
STARTCHAR +
ENCODING 43
SWIDTH 55 0
DWIDTH 2 0
BBX 2 0 0 0
BITMAP
ENDCHAR
STARTCHAR ,
ENCODING 44
SWIDTH 55 0
DWIDTH 2 0
BBX 2 0 0 0
BITMAP
ENDCHAR
STARTCHAR -
ENCODING 45
SWIDTH 55 0
DWIDTH 2 0
BBX 2 0 0 0
BITMAP
ENDCHAR
STARTCHAR .
ENCODING 46
SWIDTH 194 0
DWIDTH 7 0
BBX 5 5 1 0
BITMAP
F8
F8
F8
F8
F8
ENDCHAR
STARTCHAR /
ENCODING 47
SWIDTH 55 0
DWIDTH 2 0
BBX 2 0 0 0
BITMAP
ENDCHAR
STARTCHAR 0
ENCODING 48
SWIDTH 500 0
DWIDTH 18 0
BBX 16 28 1 0
BITMAP
1FF8
7FFE
FFFF
FFFF
FFFF
F81F
F81F
F81F
F81F
F81F
F81F
F81F
F81F
F81F
F81F
F81F
F81F
F81F
F81F
F81F
F81F
F81F
F81F
FFFF
FFFF
FFFF
7FFE
1FF8
ENDCHAR
STARTCHAR 1
ENCODING 49
SWIDTH 277 0
DWIDTH 10 0
BBX 8 28 1 0
BITMAP
3E
FE
FE
FE
FE
FE
7E
3E
3E
3E
3E
3E
3E
3E
3E
3E
3E
3E
3E
3E
3E
3E
3E
FF
FF
FF
FF
FF
ENDCHAR
STARTCHAR 2
ENCODING 50
SWIDTH 472 0
DWIDTH 17 0
BBX 15 28 1 0
BITMAP
1FF8
7FFC
FFFE
FFFE
FFFE
F83E
F83E
003E
003E
003E
003E
1FFE
7FFE
FFFE
FFFC
FFF8
F800
F800
F800
F800
F83E
F83E
F83E
FFFE
FFFE
FFFE
FFFE
FFFE
ENDCHAR
STARTCHAR 3
ENCODING 51
SWIDTH 472 0
DWIDTH 17 0
BBX 15 28 1 0
BITMAP
1FF8
7FFC
FFFE
FFFE
FFFE
F83E
F83E
003E
003E
003E
003E
07FE
07FC
07F8
07FC
07FE
003E
003E
003E
003E
F83E
F83E
F83E
FFFE
FFFE
FFFE
7FFC
1FF8
ENDCHAR
STARTCHAR 4
ENCODING 52
SWIDTH 527 0
DWIDTH 19 0
BBX 17 28 1 0
BITMAP
003F00
003F00
007F00
007F00
00FF00
01FF00
01FF00
03FF00
07FF00
07FF00
0FFF00
1FDF00
1F9F00
3F1F00
3F1F00
7FFF80
FFFF80
FFFF80
7FFF80
3FFF80
001F00
001F00
001F00
007F80
007F80
007F80
007F80
007F80
ENDCHAR
STARTCHAR 5
ENCODING 53
SWIDTH 500 0
DWIDTH 18 0
BBX 15 28 1 0
BITMAP
FFFE
FFFE
FFFE
FFFE
FFFE
F83E
F83E
F83E
F800
F800
FFF8
FFFC
FFFE
7FFE
1FFE
003E
003E
003E
003E
003E
003E
F83E
F83E
FFFE
FFFE
FFFE
7FFC
1FF8
ENDCHAR
STARTCHAR 6
ENCODING 54
SWIDTH 472 0
DWIDTH 17 0
BBX 15 28 1 0
BITMAP
1FF8
7FFC
FFFE
FFFE
FFFE
F83E
F83E
F800
F800
F800
F800
FFF8
FFFC
FFFE
FFFE
FFFE
F83E
F83E
F83E
F83E
F83E
F83E
F83E
FFFE
FFFE
FFFE
7FFC
1FF8
ENDCHAR
STARTCHAR 7
ENCODING 55
SWIDTH 500 0
DWIDTH 18 0
BBX 15 28 1 0
BITMAP
FFFC
FFFE
FFFE
FFFE
FFFE
F83E
F87E
F87C
007C
007C
00F8
00F8
00F8
01F8
01F0
01F0
03F0
03E0
03E0
03E0
07E0
07C0
07C0
1FE0
1FE0
1FE0
1FE0
1FE0
ENDCHAR
STARTCHAR 8
ENCODING 56
SWIDTH 472 0
DWIDTH 17 0
BBX 15 28 1 0
BITMAP
1FF8
7FFC
FFFE
FFFE
FFFE
F83E
F83E
F83E
F83E
F83E
F83E
FFFE
7FFC
3FF8
7FFC
FFFE
F83E
F83E
F83E
F83E
F83E
F83E
F83E
FFFE
FFFE
FFFE
7FFC
1FF8
ENDCHAR
STARTCHAR 9
ENCODING 57
SWIDTH 472 0
DWIDTH 17 0
BBX 15 28 1 0
BITMAP
1FF0
7FFC
FFFE
FFFE
FFFE
F83E
F83E
F83E
F83E
F83E
F83E
FFFE
FFFE
FFFE
7FFE
3FFE
003E
003E
003E
003E
F83E
F83E
F83E
FFFE
FFFE
FFFE
7FFC
1FF8
ENDCHAR
STARTCHAR :
ENCODING 58
SWIDTH 55 0
DWIDTH 2 0
BBX 2 0 0 0
BITMAP
ENDCHAR
STARTCHAR ;
ENCODING 59
SWIDTH 55 0
DWIDTH 2 0
BBX 2 0 0 0
BITMAP
ENDCHAR
STARTCHAR <
ENCODING 60
SWIDTH 55 0
DWIDTH 2 0
BBX 2 0 0 0
BITMAP
ENDCHAR
STARTCHAR =
ENCODING 61
SWIDTH 55 0
DWIDTH 2 0
BBX 2 0 0 0
BITMAP
ENDCHAR
STARTCHAR >
ENCODING 62
SWIDTH 55 0
DWIDTH 2 0
BBX 2 0 0 0
BITMAP
ENDCHAR
STARTCHAR ?
ENCODING 63
SWIDTH 55 0
DWIDTH 2 0
BBX 2 0 0 0
BITMAP
ENDCHAR
STARTCHAR @
ENCODING 64
SWIDTH 55 0
DWIDTH 2 0
BBX 2 0 0 0
BITMAP
ENDCHAR
STARTCHAR A
ENCODING 65
SWIDTH 583 0
DWIDTH 21 0
BBX 19 28 1 0
BITMAP
03F800
07FC00
07FC00
07FC00
07FC00
07FC00
0FFE00
0FFE00
0FFE00
0FBE00
0FBE00
1FBF00
1FBF00
1F1F00
1F1F00
1FFF00
3FFF00
3FFF80
3FFF80
3FFF80
3E0F80
7E0F80
7E0FC0
FF1FE0
FF1FE0
FF1FE0
FF1FE0
FF1FE0
ENDCHAR
STARTCHAR B
ENCODING 66
SWIDTH 527 0
DWIDTH 19 0
BBX 17 28 1 0
BITMAP
FFFE00
FFFF00
FFFF80
FFFF80
FFFF80
3E0F80
3E0F80
3E0F80
3E0F80
3E0F80
3E0F80
3FFF80
3FFF00
3FFE00
3FFF00
3FFF80
3E0F80
3E0F80
3E0F80
3E0F80
3E0F80
3E0F80
3E0F80
FFFF80
FFFF80
FFFF80
FFFF00
FFFE00
ENDCHAR
STARTCHAR C
ENCODING 67
SWIDTH 500 0
DWIDTH 18 0
BBX 16 28 1 0
BITMAP
1FF8
7FFC
FFFF
FFFF
FFFF
F81F
F81F
F81F
F800
F800
F800
F800
F800
F800
F800
F800
F800
F800
F800
F800
F81F
F81F
F81F
FFFF
FFFF
FFFF
7FFE
1FF8
ENDCHAR
STARTCHAR D
ENCODING 68
SWIDTH 555 0
DWIDTH 20 0
BBX 18 28 1 0
BITMAP
FFFE00
FFFF80
FFFFC0
FFFFC0
FFFFC0
3E07C0
3E07C0
3E07C0
3E07C0
3E07C0
3E07C0
3E07C0
3E07C0
3E07C0
3E07C0
3E07C0
3E07C0
3E07C0
3E07C0
3E07C0
3E07C0
3E07C0
3E07C0
FFFFC0
FFFFC0
FFFFC0
FFFF80
FFFE00
ENDCHAR
STARTCHAR E
ENCODING 69
SWIDTH 527 0
DWIDTH 19 0
BBX 17 28 1 0
BITMAP
FFFF80
FFFF80
FFFF80
FFFF80
FFFF80
3E0F80
3E0F80
3E0000
3E0000
3E0000
3E0000
3FFE00
3FFE00
3FFE00
3FFE00
3FFE00
3E0000
3E0000
3E0000
3E0000
3E0F80
3E0F80
3E0F80
FFFF80
FFFF80
FFFF80
FFFF80
FFFF80
ENDCHAR
STARTCHAR F
ENCODING 70
SWIDTH 500 0
DWIDTH 18 0
BBX 16 28 1 0
BITMAP
FFFF
FFFF
FFFF
FFFF
FFFF
3E1F
3E1F
3E00
3E00
3E00
3E00
3FFC
3FFC
3FFC
3FFC
3FFC
3E00
3E00
3E00
3E00
3E00
3E00
3E00
FF00
FF00
FF00
FF00
FF00
ENDCHAR
STARTCHAR G
ENCODING 71
SWIDTH 500 0
DWIDTH 18 0
BBX 16 28 1 0
BITMAP
1FF8
7FFE
FFFF
FFFF
FFFF
F81F
F81F
F800
F800
F800
F800
F9FF
F9FF
F9FF
F9FF
F9FF
F81F
F81F
F81F
F81F
F81F
F81F
F81F
FFFF
FFFF
FFFF
7FFE
1FF8
ENDCHAR
STARTCHAR H
ENCODING 72
SWIDTH 583 0
DWIDTH 21 0
BBX 19 28 1 0
BITMAP
FF1FE0
FF1FE0
FF1FE0
FF1FE0
FF1FE0
3E0F80
3E0F80
3E0F80
3E0F80
3E0F80
3E0F80
3FFF80
3FFF80
3FFF80
3FFF80
3FFF80
3E0F80
3E0F80
3E0F80
3E0F80
3E0F80
3E0F80
3E0F80
FF1FE0
FF1FE0
FF1FE0
FF1FE0
FF1FE0
ENDCHAR
STARTCHAR I
ENCODING 73
SWIDTH 277 0
DWIDTH 10 0
BBX 8 28 1 0
BITMAP
FF
FF
FF
FF
FF
3E
3E
3E
3E
3E
3E
3E
3E
3E
3E
3E
3E
3E
3E
3E
3E
3E
3E
FF
FF
FF
FF
FF
ENDCHAR
STARTCHAR J
ENCODING 74
SWIDTH 500 0
DWIDTH 18 0
BBX 16 28 1 0
BITMAP
00FF
00FF
00FF
00FF
00FF
003E
003E
003E
003E
003E
003E
003E
003E
003E
003E
003E
003E
003E
003E
003E
F83E
F83E
F83E
FFFE
FFFE
FFFE
7FFC
1FF0
ENDCHAR
STARTCHAR K
ENCODING 75
SWIDTH 611 0
DWIDTH 22 0
BBX 20 28 1 0
BITMAP
FF1FF0
FF1FF0
FF1FF0
FF1FF0
FF1FF0
3E1FC0
3E1FC0
3E3F80
3E7F00
3EFE00
3EFC00
3FF800
3FF800
3FF800
3FFC00
3FFC00
3FFE00
3FFE00
3F3F00
3E3F80
3E1F80
3E1FC0
3E0FC0
FF1FF0
FF1FF0
FF1FF0
FF1FF0
FF1FF0
ENDCHAR
STARTCHAR L
ENCODING 76
SWIDTH 500 0
DWIDTH 18 0
BBX 16 28 1 0
BITMAP
FF00
FF00
FF00
FF00
FF00
3E00
3E00
3E00
3E00
3E00
3E00
3E00
3E00
3E00
3E00
3E00
3E00
3E00
3E00
3E00
3E1F
3E1F
3E1F
FFFF
FFFF
FFFF
FFFF
FFFF
ENDCHAR
STARTCHAR M
ENCODING 77
SWIDTH 666 0
DWIDTH 24 0
BBX 22 28 1 0
BITMAP
FE00FC
FF01FC
FF01FC
FF83FC
FF87FC
3F87F8
3FCFF8
3FCFF8
3FFFF8
3FFFF8
3FFFF8
3FFFF8
3FFFF8
3FFEF8
3EFEF8
3EFCF8
3E7CF8
3E78F8
3E78F8
3E30F8
3E30F8
3E00F8
3E00F8
FF03FC
FF03FC
FF03FC
FF03FC
FF03FC
ENDCHAR
STARTCHAR N
ENCODING 78
SWIDTH 583 0
DWIDTH 21 0
BBX 19 28 1 0
BITMAP
FF1FE0
FF1FE0
FF1FE0
FF9FE0
FF9FE0
3FC7C0
3FC7C0
3FC7C0
3FE7C0
3FE7C0
3FE7C0
3FF7C0
3FF7C0
3FFFC0
3FFFC0
3EFFC0
3EFFC0
3EFFC0
3E7FC0
3E7FC0
3E3FC0
3E3FC0
3E3FC0
FF1FC0
FF1FC0
FF1FC0
FF0FC0
FF0FC0
ENDCHAR
STARTCHAR O
ENCODING 79
SWIDTH 500 0
DWIDTH 18 0
BBX 16 28 1 0
BITMAP
1FF8
7FFE
FFFF
FFFF
FFFF
F81F
F81F
F81F
F81F
F81F
F81F
F81F
F81F
F81F
F81F
F81F
F81F
F81F
F81F
F81F
F81F
F81F
F81F
FFFF
FFFF
FFFF
7FFE
1FF8
ENDCHAR
STARTCHAR P
ENCODING 80
SWIDTH 527 0
DWIDTH 19 0
BBX 17 28 1 0
BITMAP
FFFC00
FFFF00
FFFF80
FFFF80
FFFF80
3E0F80
3E0F80
3E0F80
3E0F80
3E0F80
3E0F80
3E0F80
3E0F80
3FFF80
3FFF80
3FFF80
3FFF00
3FFE00
3E0000
3E0000
3E0000
3E0000
3E0000
FF0000
FF0000
FF0000
FF0000
FF0000
ENDCHAR
STARTCHAR Q
ENCODING 81
SWIDTH 500 0
DWIDTH 18 0
BBX 16 29 1 -1
BITMAP
1FF8
7FFE
FFFF
FFFF
FFFF
F81F
F81F
F81F
F81F
F81F
F81F
F81F
F81F
F81F
F81F
F81F
F81F
F81F
F81F
F81F
F81F
F81F
F81F
FFFF
FFFF
FFFF
7FFE
1FF8
01F8
ENDCHAR
STARTCHAR R
ENCODING 82
SWIDTH 555 0
DWIDTH 20 0
BBX 18 28 1 0
BITMAP
FFFC00
FFFF00
FFFF80
FFFF80
FFFF80
3E0F80
3E0F80
3E0F80
3E0F80
3E0F80
3E0F80
3FFF80
3FFF80
3FFF00
3FFE00
3FFC00
3EFC00
3EFC00
3E7E00
3E7E00
3E3E00
3E3F00
3E3F00
FF1FC0
FF1FC0
FF1FC0
FF0FC0
FF0FC0
ENDCHAR
STARTCHAR S
ENCODING 83
SWIDTH 472 0
DWIDTH 17 0
BBX 15 28 1 0
BITMAP
1FF8
7FFC
FFFE
FFFE
FFFE
F83E
F83E
F800
F800
F800
F800
FFF8
FFFC
FFFE
7FFE
3FFE
003E
003E
003E
003E
F83E
F83E
F83E
FFFE
FFFE
FFFE
7FFC
1FF8
ENDCHAR
STARTCHAR T
ENCODING 84
SWIDTH 555 0
DWIDTH 20 0
BBX 18 28 1 0
BITMAP
FFFFC0
FFFFC0
FFFFC0
FFFFC0
FFFFC0
F9F7C0
F9F7C0
F9F7C0
01F000
01F000
01F000
01F000
01F000
01F000
01F000
01F000
01F000
01F000
01F000
01F000
01F000
01F000
01F000
07F800
07F800
07F800
07F800
07F800
ENDCHAR
STARTCHAR U
ENCODING 85
SWIDTH 583 0
DWIDTH 21 0
BBX 19 28 1 0
BITMAP
FF1FE0
FF1FE0
FF1FE0
FF1FE0
FF1FE0
3E0F80
3E0F80
3E0F80
3E0F80
3E0F80
3E0F80
3E0F80
3E0F80
3E0F80
3E0F80
3E0F80
3E0F80
3E0F80
3E0F80
3E0F80
3E0F80
3E0F80
3E0F80
3FFF80
3FFF80
3FFF80
1FFF00
0FFC00
ENDCHAR
STARTCHAR V
ENCODING 86
SWIDTH 583 0
DWIDTH 21 0
BBX 19 28 1 0
BITMAP
FF1FE0
FF1FE0
FF1FE0
FF1FE0
FF1FE0
3E0F80
3E0F80
3F1F80
3F1F80
3F1F80
1F1F00
1FBF00
1FBF00
1FBF00
0FBE00
0FFE00
0FFE00
0FFE00
0FFE00
07FC00
07FC00
07FC00
07FC00
03F800
03F800
03F800
03F800
03F800
ENDCHAR
STARTCHAR W
ENCODING 87
SWIDTH 777 0
DWIDTH 28 0
BBX 26 28 1 0
BITMAP
FF1E3FC0
FF3F3FC0
FF3F3FC0
FF3F3FC0
FF3F3FC0
7E3F1F00
3E7F1F00
3E7F9F00
3E7F9F00
3F7FBF00
3F7FBF00
1F7FBE00
1FFFFE00
1FFFFE00
1FFFFE00
1FFFFE00
1FFFFE00
0FFFFC00
0FFFFC00
0FF3FC00
0FF3FC00
0FF3FC00
0FF3FC00
07F3F800
07E1F800
07E1F800
07E1F800
07E1F800
ENDCHAR
STARTCHAR X
ENCODING 88
SWIDTH 583 0
DWIDTH 21 0
BBX 19 28 1 0
BITMAP
FF1FE0
FF1FE0
FF1FE0
FF1FE0
FF1FE0
7F1FC0
3F1F80
1FBF00
1FFF00
0FFE00
0FFE00
07FC00
03F800
03F800
03F800
07FC00
07FC00
0FFE00
0FFE00
1FFF00
1FBF00
3F1F80
7F1FC0
FF1FE0
FF1FE0
FF1FE0
FF1FE0
FF1FE0
ENDCHAR
STARTCHAR Y
ENCODING 89
SWIDTH 555 0
DWIDTH 20 0
BBX 18 28 1 0
BITMAP
FF3FC0
FF3FC0
FF3FC0
FF3FC0
FF3FC0
3E3F00
3F3F00
1F3E00
1F7E00
1FFE00
0FFC00
0FFC00
0FF800
07F800
07F800
07F000
03F000
03E000
03E000
03E000
03E000
03E000
03E000
07F800
07F800
07F800
07F800
07F800
ENDCHAR
STARTCHAR Z
ENCODING 90
SWIDTH 472 0
DWIDTH 17 0
BBX 15 28 1 0
BITMAP
7FFE
7FFE
7FFE
7FFE
7FFC
7CFC
7CFC
7DF8
01F8
01F0
03F0
03F0
03E0
07E0
07C0
0FC0
0FC0
0F80
1F80
1F00
3F3E
3F3E
3E3E
7FFE
7FFE
FFFE
FFFE
FFFE
ENDCHAR
STARTCHAR [
ENCODING 91
SWIDTH 55 0
DWIDTH 2 0
BBX 2 0 0 0
BITMAP
ENDCHAR
STARTCHAR \
ENCODING 92
SWIDTH 55 0
DWIDTH 2 0
BBX 2 0 0 0
BITMAP
ENDCHAR
STARTCHAR ]
ENCODING 93
SWIDTH 55 0
DWIDTH 2 0
BBX 2 0 0 0
BITMAP
ENDCHAR
STARTCHAR ^
ENCODING 94
SWIDTH 55 0
DWIDTH 2 0
BBX 2 0 0 0
BITMAP
ENDCHAR
STARTCHAR _
ENCODING 95
SWIDTH 55 0
DWIDTH 2 0
BBX 2 0 0 0
BITMAP
ENDCHAR
STARTCHAR `
ENCODING 96
SWIDTH 55 0
DWIDTH 2 0
BBX 2 0 0 0
BITMAP
ENDCHAR
STARTCHAR a
ENCODING 97
SWIDTH 583 0
DWIDTH 21 0
BBX 19 28 1 0
BITMAP
03F800
07FC00
07FC00
07FC00
07FC00
07FC00
0FFE00
0FFE00
0FFE00
0FBE00
0FBE00
1FBF00
1FBF00
1F1F00
1F1F00
1FFF00
3FFF00
3FFF80
3FFF80
3FFF80
3E0F80
7E0F80
7E0FC0
FF1FE0
FF1FE0
FF1FE0
FF1FE0
FF1FE0
ENDCHAR
STARTCHAR b
ENCODING 98
SWIDTH 527 0
DWIDTH 19 0
BBX 17 28 1 0
BITMAP
FFFE00
FFFF00
FFFF80
FFFF80
FFFF80
3E0F80
3E0F80
3E0F80
3E0F80
3E0F80
3E0F80
3FFF80
3FFF00
3FFE00
3FFF00
3FFF80
3E0F80
3E0F80
3E0F80
3E0F80
3E0F80
3E0F80
3E0F80
FFFF80
FFFF80
FFFF80
FFFF00
FFFE00
ENDCHAR
STARTCHAR c
ENCODING 99
SWIDTH 500 0
DWIDTH 18 0
BBX 16 28 1 0
BITMAP
1FF8
7FFC
FFFF
FFFF
FFFF
F81F
F81F
F81F
F800
F800
F800
F800
F800
F800
F800
F800
F800
F800
F800
F800
F81F
F81F
F81F
FFFF
FFFF
FFFF
7FFE
1FF8
ENDCHAR
STARTCHAR d
ENCODING 100
SWIDTH 555 0
DWIDTH 20 0
BBX 18 28 1 0
BITMAP
FFFE00
FFFF80
FFFFC0
FFFFC0
FFFFC0
3E07C0
3E07C0
3E07C0
3E07C0
3E07C0
3E07C0
3E07C0
3E07C0
3E07C0
3E07C0
3E07C0
3E07C0
3E07C0
3E07C0
3E07C0
3E07C0
3E07C0
3E07C0
FFFFC0
FFFFC0
FFFFC0
FFFF80
FFFE00
ENDCHAR
STARTCHAR e
ENCODING 101
SWIDTH 527 0
DWIDTH 19 0
BBX 17 28 1 0
BITMAP
FFFF80
FFFF80
FFFF80
FFFF80
FFFF80
3E0F80
3E0F80
3E0000
3E0000
3E0000
3E0000
3FFE00
3FFE00
3FFE00
3FFE00
3FFE00
3E0000
3E0000
3E0000
3E0000
3E0F80
3E0F80
3E0F80
FFFF80
FFFF80
FFFF80
FFFF80
FFFF80
ENDCHAR
STARTCHAR f
ENCODING 102
SWIDTH 500 0
DWIDTH 18 0
BBX 16 28 1 0
BITMAP
FFFF
FFFF
FFFF
FFFF
FFFF
3E1F
3E1F
3E00
3E00
3E00
3E00
3FFC
3FFC
3FFC
3FFC
3FFC
3E00
3E00
3E00
3E00
3E00
3E00
3E00
FF00
FF00
FF00
FF00
FF00
ENDCHAR
STARTCHAR g
ENCODING 103
SWIDTH 500 0
DWIDTH 18 0
BBX 16 28 1 0
BITMAP
1FF8
7FFE
FFFF
FFFF
FFFF
F81F
F81F
F800
F800
F800
F800
F9FF
F9FF
F9FF
F9FF
F9FF
F81F
F81F
F81F
F81F
F81F
F81F
F81F
FFFF
FFFF
FFFF
7FFE
1FF8
ENDCHAR
STARTCHAR h
ENCODING 104
SWIDTH 583 0
DWIDTH 21 0
BBX 19 28 1 0
BITMAP
FF1FE0
FF1FE0
FF1FE0
FF1FE0
FF1FE0
3E0F80
3E0F80
3E0F80
3E0F80
3E0F80
3E0F80
3FFF80
3FFF80
3FFF80
3FFF80
3FFF80
3E0F80
3E0F80
3E0F80
3E0F80
3E0F80
3E0F80
3E0F80
FF1FE0
FF1FE0
FF1FE0
FF1FE0
FF1FE0
ENDCHAR
STARTCHAR i
ENCODING 105
SWIDTH 277 0
DWIDTH 10 0
BBX 8 28 1 0
BITMAP
FF
FF
FF
FF
FF
3E
3E
3E
3E
3E
3E
3E
3E
3E
3E
3E
3E
3E
3E
3E
3E
3E
3E
FF
FF
FF
FF
FF
ENDCHAR
STARTCHAR j
ENCODING 106
SWIDTH 500 0
DWIDTH 18 0
BBX 16 28 1 0
BITMAP
00FF
00FF
00FF
00FF
00FF
003E
003E
003E
003E
003E
003E
003E
003E
003E
003E
003E
003E
003E
003E
003E
F83E
F83E
F83E
FFFE
FFFE
FFFE
7FFC
1FF0
ENDCHAR
STARTCHAR k
ENCODING 107
SWIDTH 611 0
DWIDTH 22 0
BBX 20 28 1 0
BITMAP
FF1FF0
FF1FF0
FF1FF0
FF1FF0
FF1FF0
3E1FC0
3E1FC0
3E3F80
3E7F00
3EFE00
3EFC00
3FF800
3FF800
3FF800
3FFC00
3FFC00
3FFE00
3FFE00
3F3F00
3E3F80
3E1F80
3E1FC0
3E0FC0
FF1FF0
FF1FF0
FF1FF0
FF1FF0
FF1FF0
ENDCHAR
STARTCHAR l
ENCODING 108
SWIDTH 500 0
DWIDTH 18 0
BBX 16 28 1 0
BITMAP
FF00
FF00
FF00
FF00
FF00
3E00
3E00
3E00
3E00
3E00
3E00
3E00
3E00
3E00
3E00
3E00
3E00
3E00
3E00
3E00
3E1F
3E1F
3E1F
FFFF
FFFF
FFFF
FFFF
FFFF
ENDCHAR
STARTCHAR m
ENCODING 109
SWIDTH 666 0
DWIDTH 24 0
BBX 22 28 1 0
BITMAP
FE00FC
FF01FC
FF01FC
FF83FC
FF87FC
3F87F8
3FCFF8
3FCFF8
3FFFF8
3FFFF8
3FFFF8
3FFFF8
3FFFF8
3FFEF8
3EFEF8
3EFCF8
3E7CF8
3E78F8
3E78F8
3E30F8
3E30F8
3E00F8
3E00F8
FF03FC
FF03FC
FF03FC
FF03FC
FF03FC
ENDCHAR
STARTCHAR n
ENCODING 110
SWIDTH 583 0
DWIDTH 21 0
BBX 19 28 1 0
BITMAP
FF1FE0
FF1FE0
FF1FE0
FF9FE0
FF9FE0
3FC7C0
3FC7C0
3FC7C0
3FE7C0
3FE7C0
3FE7C0
3FF7C0
3FF7C0
3FFFC0
3FFFC0
3EFFC0
3EFFC0
3EFFC0
3E7FC0
3E7FC0
3E3FC0
3E3FC0
3E3FC0
FF1FC0
FF1FC0
FF1FC0
FF0FC0
FF0FC0
ENDCHAR
STARTCHAR o
ENCODING 111
SWIDTH 500 0
DWIDTH 18 0
BBX 16 28 1 0
BITMAP
1FF8
7FFE
FFFF
FFFF
FFFF
F81F
F81F
F81F
F81F
F81F
F81F
F81F
F81F
F81F
F81F
F81F
F81F
F81F
F81F
F81F
F81F
F81F
F81F
FFFF
FFFF
FFFF
7FFE
1FF8
ENDCHAR
STARTCHAR p
ENCODING 112
SWIDTH 527 0
DWIDTH 19 0
BBX 17 28 1 0
BITMAP
FFFC00
FFFF00
FFFF80
FFFF80
FFFF80
3E0F80
3E0F80
3E0F80
3E0F80
3E0F80
3E0F80
3E0F80
3E0F80
3FFF80
3FFF80
3FFF80
3FFF00
3FFE00
3E0000
3E0000
3E0000
3E0000
3E0000
FF0000
FF0000
FF0000
FF0000
FF0000
ENDCHAR
STARTCHAR q
ENCODING 113
SWIDTH 500 0
DWIDTH 18 0
BBX 16 29 1 -1
BITMAP
1FF8
7FFE
FFFF
FFFF
FFFF
F81F
F81F
F81F
F81F
F81F
F81F
F81F
F81F
F81F
F81F
F81F
F81F
F81F
F81F
F81F
F81F
F81F
F81F
FFFF
FFFF
FFFF
7FFE
1FF8
01F8
ENDCHAR
STARTCHAR r
ENCODING 114
SWIDTH 555 0
DWIDTH 20 0
BBX 18 28 1 0
BITMAP
FFFC00
FFFF00
FFFF80
FFFF80
FFFF80
3E0F80
3E0F80
3E0F80
3E0F80
3E0F80
3E0F80
3FFF80
3FFF80
3FFF00
3FFE00
3FFC00
3EFC00
3EFC00
3E7E00
3E7E00
3E3E00
3E3F00
3E3F00
FF1FC0
FF1FC0
FF1FC0
FF0FC0
FF0FC0
ENDCHAR
STARTCHAR s
ENCODING 115
SWIDTH 472 0
DWIDTH 17 0
BBX 15 28 1 0
BITMAP
1FF8
7FFC
FFFE
FFFE
FFFE
F83E
F83E
F800
F800
F800
F800
FFF8
FFFC
FFFE
7FFE
3FFE
003E
003E
003E
003E
F83E
F83E
F83E
FFFE
FFFE
FFFE
7FFC
1FF8
ENDCHAR
STARTCHAR t
ENCODING 116
SWIDTH 555 0
DWIDTH 20 0
BBX 18 28 1 0
BITMAP
FFFFC0
FFFFC0
FFFFC0
FFFFC0
FFFFC0
F9F7C0
F9F7C0
F9F7C0
01F000
01F000
01F000
01F000
01F000
01F000
01F000
01F000
01F000
01F000
01F000
01F000
01F000
01F000
01F000
07F800
07F800
07F800
07F800
07F800
ENDCHAR
STARTCHAR u
ENCODING 117
SWIDTH 583 0
DWIDTH 21 0
BBX 19 28 1 0
BITMAP
FF1FE0
FF1FE0
FF1FE0
FF1FE0
FF1FE0
3E0F80
3E0F80
3E0F80
3E0F80
3E0F80
3E0F80
3E0F80
3E0F80
3E0F80
3E0F80
3E0F80
3E0F80
3E0F80
3E0F80
3E0F80
3E0F80
3E0F80
3E0F80
3FFF80
3FFF80
3FFF80
1FFF00
0FFC00
ENDCHAR
STARTCHAR v
ENCODING 118
SWIDTH 583 0
DWIDTH 21 0
BBX 19 28 1 0
BITMAP
FF1FE0
FF1FE0
FF1FE0
FF1FE0
FF1FE0
3E0F80
3E0F80
3F1F80
3F1F80
3F1F80
1F1F00
1FBF00
1FBF00
1FBF00
0FBE00
0FFE00
0FFE00
0FFE00
0FFE00
07FC00
07FC00
07FC00
07FC00
03F800
03F800
03F800
03F800
03F800
ENDCHAR
STARTCHAR w
ENCODING 119
SWIDTH 777 0
DWIDTH 28 0
BBX 26 28 1 0
BITMAP
FF1E3FC0
FF3F3FC0
FF3F3FC0
FF3F3FC0
FF3F3FC0
7E3F1F00
3E7F1F00
3E7F9F00
3E7F9F00
3F7FBF00
3F7FBF00
1F7FBE00
1FFFFE00
1FFFFE00
1FFFFE00
1FFFFE00
1FFFFE00
0FFFFC00
0FFFFC00
0FF3FC00
0FF3FC00
0FF3FC00
0FF3FC00
07F3F800
07E1F800
07E1F800
07E1F800
07E1F800
ENDCHAR
STARTCHAR x
ENCODING 120
SWIDTH 583 0
DWIDTH 21 0
BBX 19 28 1 0
BITMAP
FF1FE0
FF1FE0
FF1FE0
FF1FE0
FF1FE0
7F1FC0
3F1F80
1FBF00
1FFF00
0FFE00
0FFE00
07FC00
03F800
03F800
03F800
07FC00
07FC00
0FFE00
0FFE00
1FFF00
1FBF00
3F1F80
7F1FC0
FF1FE0
FF1FE0
FF1FE0
FF1FE0
FF1FE0
ENDCHAR
STARTCHAR y
ENCODING 121
SWIDTH 555 0
DWIDTH 20 0
BBX 18 28 1 0
BITMAP
FF3FC0
FF3FC0
FF3FC0
FF3FC0
FF3FC0
3E3F00
3F3F00
1F3E00
1F7E00
1FFE00
0FFC00
0FFC00
0FF800
07F800
07F800
07F000
03F000
03E000
03E000
03E000
03E000
03E000
03E000
07F800
07F800
07F800
07F800
07F800
ENDCHAR
STARTCHAR z
ENCODING 122
SWIDTH 472 0
DWIDTH 17 0
BBX 15 28 1 0
BITMAP
7FFE
7FFE
7FFE
7FFE
7FFC
7CFC
7CFC
7DF8
01F8
01F0
03F0
03F0
03E0
07E0
07C0
0FC0
0FC0
0F80
1F80
1F00
3F3E
3F3E
3E3E
7FFE
7FFE
FFFE
FFFE
FFFE
ENDCHAR
STARTCHAR {
ENCODING 123
SWIDTH 472 0
DWIDTH 17 0
BBX 15 28 1 0
BITMAP
1FF8
7FFC
FFFE
FFFE
FFFE
F83E
F83E
F83E
007E
007E
00FE
01FC
03F8
07F0
0FE0
1FC0
3F80
7F00
FE00
FC00
F83E
F83E
F83E
FFFE
FFFE
FFFE
FFFE
FFFE
ENDCHAR
STARTCHAR |
ENCODING 124
SWIDTH 500 0
DWIDTH 18 0
BBX 18 0 0 0
BITMAP
ENDCHAR
STARTCHAR }
ENCODING 125
SWIDTH 500 0
DWIDTH 18 0
BBX 15 28 1 0
BITMAP
FFFE
FFFE
FFFE
FFFE
FFFE
F83E
F83E
F83E
F800
FFF8
FFFC
FFFE
FFFE
FFFE
003E
003E
003E
003E
003E
003E
F83E
F83E
F83E
FFFE
FFFE
FFFE
7FFC
1FF8
ENDCHAR
STARTCHAR ~
ENCODING 126
SWIDTH 527 0
DWIDTH 19 0
BBX 19 0 0 0
BITMAP
ENDCHAR
ENDFONT
