STARTFONT 2.1
COMMENT Converted from Superstar M54.ttf at pixel size 24
FONT -misc-superstar-medium-r-normal--24-240-72-72-p-0-iso10646-1
SIZE 24 72 72
FONTBOUNDINGBOX 17 20 0 -1
STARTPROPERTIES 3
FONT_ASCENT 24
FONT_DESCENT 6
FAMILY_NAME "Superstar"
ENDPROPERTIES
CHARS 95
STARTCHAR space
ENCODING 32
SWIDTH 250 0
DWIDTH 6 0
BBX 6 0 0 0
BITMAP
ENDCHAR
STARTCHAR !
ENCODING 33
SWIDTH 83 0
DWIDTH 2 0
BBX 2 0 0 0
BITMAP
ENDCHAR
STARTCHAR "
ENCODING 34
SWIDTH 83 0
DWIDTH 2 0
BBX 2 0 0 0
BITMAP
ENDCHAR
STARTCHAR #
ENCODING 35
SWIDTH 83 0
DWIDTH 2 0
BBX 2 0 0 0
BITMAP
ENDCHAR
STARTCHAR $
ENCODING 36
SWIDTH 500 0
DWIDTH 12 0
BBX 10 19 1 0
BITMAP
7F80
FFC0
FFC0
FFC0
F3C0
F000
F000
F800
7E00
3F00
1F80
07C0
03C0
03C0
F3C0
FFC0
FFC0
FFC0
7F80
ENDCHAR
STARTCHAR %
ENCODING 37
SWIDTH 83 0
DWIDTH 2 0
BBX 2 0 0 0
BITMAP
ENDCHAR
STARTCHAR &
ENCODING 38
SWIDTH 83 0
DWIDTH 2 0
BBX 2 0 0 0
BITMAP
ENDCHAR
STARTCHAR '
ENCODING 39
SWIDTH 83 0
DWIDTH 2 0
BBX 2 0 0 0
BITMAP
ENDCHAR
STARTCHAR (
ENCODING 40
SWIDTH 541 0
DWIDTH 13 0
BBX 13 0 0 0
BITMAP
ENDCHAR
STARTCHAR )
ENCODING 41
SWIDTH 541 0
DWIDTH 13 0
BBX 13 0 0 0
BITMAP
ENDCHAR
STARTCHAR *
ENCODING 42
SWIDTH 83 0
DWIDTH 2 0
BBX 2 0 0 0
BITMAP
ENDCHAR
STARTCHAR +
ENCODING 43
SWIDTH 83 0
DWIDTH 2 0
BBX 2 0 0 0
BITMAP
ENDCHAR
STARTCHAR ,
ENCODING 44
SWIDTH 83 0
DWIDTH 2 0
BBX 2 0 0 0
BITMAP
ENDCHAR
STARTCHAR -
ENCODING 45
SWIDTH 83 0
DWIDTH 2 0
BBX 2 0 0 0
BITMAP
ENDCHAR
STARTCHAR .
ENCODING 46
SWIDTH 208 0
DWIDTH 5 0
BBX 4 4 1 0
BITMAP
E0
F0
F0
F0
ENDCHAR
STARTCHAR /
ENCODING 47
SWIDTH 83 0
DWIDTH 2 0
BBX 2 0 0 0
BITMAP
ENDCHAR
STARTCHAR 0
ENCODING 48
SWIDTH 500 0
DWIDTH 12 0
BBX 11 19 1 0
BITMAP
3F80
FFC0
FFE0
FFE0
F1E0
F1E0
F1E0
F1E0
F1E0
F1E0
F1E0
F1E0
F1E0
F1E0
F1E0
FFE0
FFE0
FFC0
7F80
ENDCHAR
STARTCHAR 1
ENCODING 49
SWIDTH 291 0
DWIDTH 7 0
BBX 5 19 1 0
BITMAP
F8
F8
F8
F8
78
78
78
78
78
78
78
78
78
78
78
F8
F8
F8
F8
ENDCHAR
STARTCHAR 2
ENCODING 50
SWIDTH 500 0
DWIDTH 12 0
BBX 11 19 1 0
BITMAP
3F80
FFC0
FFE0
FFE0
F1E0
01E0
01E0
3FE0
7FE0
FFC0
FF80
F000
F000
F000
F1E0
FFE0
FFE0
FFE0
FFE0
ENDCHAR
STARTCHAR 3
ENCODING 51
SWIDTH 500 0
DWIDTH 12 0
BBX 11 19 1 0
BITMAP
3F80
FFC0
FFE0
FFE0
F1E0
01E0
01E0
1FC0
1FC0
1F80
1FC0
01E0
01E0
01E0
F1E0
FFE0
FFE0
FFC0
7F80
ENDCHAR
STARTCHAR 4
ENCODING 52
SWIDTH 541 0
DWIDTH 13 0
BBX 11 19 1 0
BITMAP
01E0
03E0
07E0
07E0
0FE0
0FE0
1FE0
3FE0
3DE0
7DE0
7FE0
FFE0
FFE0
7FE0
01E0
03E0
03E0
03E0
03E0
ENDCHAR
STARTCHAR 5
ENCODING 53
SWIDTH 500 0
DWIDTH 12 0
BBX 10 19 1 0
BITMAP
FFC0
FFC0
FFC0
FFC0
F3C0
F000
FF00
FF80
FFC0
7FC0
03C0
03C0
03C0
03C0
F3C0
FFC0
FFC0
FFC0
7F80
ENDCHAR
STARTCHAR 6
ENCODING 54
SWIDTH 500 0
DWIDTH 12 0
BBX 11 19 1 0
BITMAP
7F80
FFC0
FFE0
FFE0
F1E0
F000
F000
FF00
FFC0
FFC0
FFE0
F1E0
F1E0
F1E0
F1E0
FFE0
FFE0
FFC0
7F80
ENDCHAR
STARTCHAR 7
ENCODING 55
SWIDTH 500 0
DWIDTH 12 0
BBX 10 19 1 0
BITMAP
FF80
FFC0
FFC0
FFC0
F380
0380
0780
0780
0700
0700
0F00
0F00
0E00
0E00
1E00
3E00
3E00
3E00
3E00
ENDCHAR
STARTCHAR 8
ENCODING 56
SWIDTH 500 0
DWIDTH 12 0
BBX 11 19 1 0
BITMAP
7F80
FFC0
FFE0
FFE0
F1E0
F1E0
F1E0
FFC0
7FC0
7F80
FFC0
F1E0
F1E0
F1E0
F1E0
FFE0
FFE0
FFC0
7F80
ENDCHAR
STARTCHAR 9
ENCODING 57
SWIDTH 500 0
DWIDTH 12 0
BBX 11 19 1 0
BITMAP
7F80
FFC0
FFE0
FFE0
F1E0
F1E0
F1E0
FFE0
FFE0
FFE0
7FE0
01E0
01E0
01E0
F1E0
FFE0
FFE0
FFC0
3F80
ENDCHAR
STARTCHAR :
ENCODING 58
SWIDTH 83 0
DWIDTH 2 0
BBX 2 0 0 0
BITMAP
ENDCHAR
STARTCHAR ;
ENCODING 59
SWIDTH 83 0
DWIDTH 2 0
BBX 2 0 0 0
BITMAP
ENDCHAR
STARTCHAR <
ENCODING 60
SWIDTH 83 0
DWIDTH 2 0
BBX 2 0 0 0
BITMAP
ENDCHAR
STARTCHAR =
ENCODING 61
SWIDTH 83 0
DWIDTH 2 0
BBX 2 0 0 0
BITMAP
ENDCHAR
STARTCHAR >
ENCODING 62
SWIDTH 83 0
DWIDTH 2 0
BBX 2 0 0 0
BITMAP
ENDCHAR
STARTCHAR ?
ENCODING 63
SWIDTH 83 0
DWIDTH 2 0
BBX 2 0 0 0
BITMAP
ENDCHAR
STARTCHAR @
ENCODING 64
SWIDTH 83 0
DWIDTH 2 0
BBX 2 0 0 0
BITMAP
ENDCHAR
STARTCHAR A
ENCODING 65
SWIDTH 583 0
DWIDTH 14 0
BBX 12 19 1 0
BITMAP
1F80
1F80
1F80
1F80
1F80
1F80
3FC0
3FC0
3FC0
39C0
3FC0
7FE0
7FE0
7FE0
70E0
F9F0
F9F0
F9F0
F9F0
ENDCHAR
STARTCHAR B
ENCODING 66
SWIDTH 541 0
DWIDTH 13 0
BBX 12 19 1 0
BITMAP
FFC0
FFE0
FFF0
FFF0
78F0
78F0
78F0
7FE0
7FE0
7FC0
7FE0
78F0
78F0
78F0
78F0
FFF0
FFF0
FFE0
FFC0
ENDCHAR
STARTCHAR C
ENCODING 67
SWIDTH 500 0
DWIDTH 12 0
BBX 11 19 1 0
BITMAP
7F80
FFC0
FFE0
FFE0
F1E0
F000
F000
F000
F000
F000
F000
F000
F000
F000
F1E0
FFE0
FFE0
FFC0
7F80
ENDCHAR
STARTCHAR D
ENCODING 68
SWIDTH 541 0
DWIDTH 13 0
BBX 12 19 1 0
BITMAP
FFC0
FFE0
FFF0
FFF0
78F0
78F0
78F0
78F0
78F0
78F0
78F0
78F0
78F0
78F0
78F0
FFF0
FFF0
FFE0
FFC0
ENDCHAR
STARTCHAR E
ENCODING 69
SWIDTH 541 0
DWIDTH 13 0
BBX 11 19 1 0
BITMAP
FFE0
FFE0
FFE0
FFE0
79E0
7800
7800
7F80
7F80
7F80
7F80
7800
7800
7800
79E0
FFE0
FFE0
FFE0
FFE0
ENDCHAR
STARTCHAR F
ENCODING 70
SWIDTH 541 0
DWIDTH 13 0
BBX 11 19 1 0
BITMAP
FFE0
FFE0
FFE0
FFE0
79E0
7800
7800
7F80
7F80
7F80
7F80
7800
7800
7800
7800
F800
F800
F800
F800
ENDCHAR
STARTCHAR G
ENCODING 71
SWIDTH 500 0
DWIDTH 12 0
BBX 11 19 1 0
BITMAP
3F80
FFC0
FFE0
FFE0
F1E0
F000
F000
F7C0
F7E0
F7E0
F7E0
F1E0
F1E0
F1E0
F1E0
FFE0
FFE0
FFC0
7F80
ENDCHAR
STARTCHAR H
ENCODING 72
SWIDTH 583 0
DWIDTH 14 0
BBX 12 19 1 0
BITMAP
F9F0
F9F0
F9F0
F9F0
78F0
78F0
78F0
7FF0
7FF0
7FF0
7FF0
78F0
78F0
78F0
78F0
F9F0
F9F0
F9F0
F9F0
ENDCHAR
STARTCHAR I
ENCODING 73
SWIDTH 291 0
DWIDTH 7 0
BBX 5 19 1 0
BITMAP
F8
F8
F8
F8
78
78
78
78
78
78
78
78
78
78
78
F8
F8
F8
F8
ENDCHAR
STARTCHAR J
ENCODING 74
SWIDTH 541 0
DWIDTH 13 0
BBX 11 19 1 0
BITMAP
03E0
03E0
03E0
03E0
03C0
03C0
03C0
03C0
03C0
03C0
03C0
03C0
03C0
03C0
F3C0
FFC0
FFC0
FFC0
7F00
ENDCHAR
STARTCHAR K
ENCODING 75
SWIDTH 625 0
DWIDTH 15 0
BBX 13 19 1 0
BITMAP
F9F8
F9F8
F9F8
F9F8
79E0
7BE0
7FC0
7F80
7F00
7F80
7F80
7FC0
7BC0
79E0
79E0
F9F8
F9F8
F9F8
F9F8
ENDCHAR
STARTCHAR L
ENCODING 76
SWIDTH 500 0
DWIDTH 12 0
BBX 11 19 1 0
BITMAP
F800
F800
F800
F800
7800
7800
7800
7800
7800
7800
7800
7800
7800
7800
79E0
FFE0
FFE0
FFE0
FFE0
ENDCHAR
STARTCHAR M
ENCODING 77
SWIDTH 708 0
DWIDTH 17 0
BBX 15 19 1 0
BITMAP
F83E
F83E
FC7E
FC7E
7EFC
7EFC
7FFC
7FFC
7FFC
7FFC
7FFC
7BBC
7BBC
793C
783C
F83E
F83E
F83E
F83E
ENDCHAR
STARTCHAR N
ENCODING 78
SWIDTH 625 0
DWIDTH 15 0
BBX 13 19 1 0
BITMAP
F8F8
F8F8
FCF8
FCF8
7EF0
7EF0
7EF0
7FF0
7FF0
7FF0
7FF0
7FF0
7BF0
7BF0
7BF0
F9F0
F9F0
F8F0
F8F0
ENDCHAR
STARTCHAR O
ENCODING 79
SWIDTH 500 0
DWIDTH 12 0
BBX 11 19 1 0
BITMAP
7F80
FFC0
FFE0
FFE0
F1E0
F1E0
F1E0
F1E0
F1E0
F1E0
F1E0
F1E0
F1E0
F1E0
F1E0
FFE0
FFE0
FFC0
7F80
ENDCHAR
STARTCHAR P
ENCODING 80
SWIDTH 541 0
DWIDTH 13 0
BBX 12 19 1 0
BITMAP
FFC0
FFE0
FFF0
FFF0
78F0
78F0
78F0
78F0
78F0
7FF0
7FE0
7FC0
7F80
7800
7800
F800
F800
F800
F800
ENDCHAR
STARTCHAR Q
ENCODING 81
SWIDTH 500 0
DWIDTH 12 0
BBX 11 20 1 -1
BITMAP
7F80
FFC0
FFE0
FFE0
F1E0
F1E0
F1E0
F1E0
F1E0
F1E0
F1E0
F1E0
F1E0
F1E0
F1E0
F1E0
FFE0
FFC0
7F80
0780
ENDCHAR
STARTCHAR R
ENCODING 82
SWIDTH 583 0
DWIDTH 14 0
BBX 12 19 1 0
BITMAP
FFC0
FFE0
FFF0
FFF0
78F0
78F0
78F0
7FF0
7FE0
7FE0
7FC0
7F80
7BC0
7BC0
7BC0
F9F0
F9F0
F8F0
F8F0
ENDCHAR
STARTCHAR S
ENCODING 83
SWIDTH 500 0
DWIDTH 12 0
BBX 11 19 1 0
BITMAP
3F80
FFC0
FFE0
FFE0
F1E0
F000
F000
FF00
FF80
FFC0
3FE0
01E0
01E0
01E0
F1E0
FFE0
FFE0
FFC0
3F80
ENDCHAR
STARTCHAR T
ENCODING 84
SWIDTH 583 0
DWIDTH 14 0
BBX 12 19 1 0
BITMAP
FFF0
FFF0
FFF0
FFF0
FFF0
0F00
0F00
0F00
0F00
0F00
0F00
0F00
0F00
0F00
0F00
0F80
0F80
0F80
0F80
ENDCHAR
STARTCHAR U
ENCODING 85
SWIDTH 583 0
DWIDTH 14 0
BBX 12 19 1 0
BITMAP
F9F0
F9F0
F9F0
F9F0
78F0
78F0
78F0
78F0
78F0
78F0
78F0
78F0
78F0
78F0
78F0
7FF0
7FF0
7FE0
3FC0
ENDCHAR
STARTCHAR V
ENCODING 86
SWIDTH 583 0
DWIDTH 14 0
BBX 12 19 1 0
BITMAP
F9F0
F9F0
F9F0
F9F0
79E0
79E0
39C0
39C0
3FC0
3FC0
3FC0
1F80
1F80
1F80
1F80
1F80
0F00
0F00
0F00
ENDCHAR
STARTCHAR W
ENCODING 87
SWIDTH 791 0
DWIDTH 19 0
BBX 17 19 1 0
BITMAP
F9CF80
F9CF80
FBEF80
FBEF80
73EF00
7BEF00
7BEF00
3FFE00
3FFE00
3FFE00
3FFE00
3FFE00
3F7E00
3F7E00
1F7C00
1F7C00
1E3C00
1E3C00
1E3C00
ENDCHAR
STARTCHAR X
ENCODING 88
SWIDTH 583 0
DWIDTH 14 0
BBX 12 19 1 0
BITMAP
F9F0
F9F0
F9F0
F9F0
79E0
3FC0
3FC0
1F80
1F80
0F00
1F80
1F80
3FC0
3FC0
79E0
F9F0
F9F0
F9F0
F9F0
ENDCHAR
STARTCHAR Y
ENCODING 89
SWIDTH 583 0
DWIDTH 14 0
BBX 12 19 1 0
BITMAP
F9F0
F9F0
F9F0
F9F0
79C0
3BC0
3FC0
3F80
1F80
1F00
1F00
0F00
0F00
0F00
0F00
1F00
1F00
1F00
1F00
ENDCHAR
STARTCHAR Z
ENCODING 90
SWIDTH 458 0
DWIDTH 11 0
BBX 11 19 0 0
BITMAP
7FE0
7FE0
7FC0
7FC0
7B80
0780
0780
0F00
0F00
0F00
1E00
1E00
3C00
3C00
3DE0
7FE0
7FE0
FFE0
FFE0
ENDCHAR
STARTCHAR [
ENCODING 91
SWIDTH 83 0
DWIDTH 2 0
BBX 2 0 0 0
BITMAP
ENDCHAR
STARTCHAR \
ENCODING 92
SWIDTH 83 0
DWIDTH 2 0
BBX 2 0 0 0
BITMAP
ENDCHAR
STARTCHAR ]
ENCODING 93
SWIDTH 83 0
DWIDTH 2 0
BBX 2 0 0 0
BITMAP
ENDCHAR
STARTCHAR ^
ENCODING 94
SWIDTH 83 0
DWIDTH 2 0
BBX 2 0 0 0
BITMAP
ENDCHAR
STARTCHAR _
ENCODING 95
SWIDTH 83 0
DWIDTH 2 0
BBX 2 0 0 0
BITMAP
ENDCHAR
STARTCHAR `
ENCODING 96
SWIDTH 83 0
DWIDTH 2 0
BBX 2 0 0 0
BITMAP
ENDCHAR
STARTCHAR a
ENCODING 97
SWIDTH 583 0
DWIDTH 14 0
BBX 12 19 1 0
BITMAP
1F80
1F80
1F80
1F80
1F80
1F80
3FC0
3FC0
3FC0
39C0
3FC0
7FE0
7FE0
7FE0
70E0
F9F0
F9F0
F9F0
F9F0
ENDCHAR
STARTCHAR b
ENCODING 98
SWIDTH 541 0
DWIDTH 13 0
BBX 12 19 1 0
BITMAP
FFC0
FFE0
FFF0
FFF0
78F0
78F0
78F0
7FE0
7FE0
7FC0
7FE0
78F0
78F0
78F0
78F0
FFF0
FFF0
FFE0
FFC0
ENDCHAR
STARTCHAR c
ENCODING 99
SWIDTH 500 0
DWIDTH 12 0
BBX 11 19 1 0
BITMAP
7F80
FFC0
FFE0
FFE0
F1E0
F000
F000
F000
F000
F000
F000
F000
F000
F000
F1E0
FFE0
FFE0
FFC0
7F80
ENDCHAR
STARTCHAR d
ENCODING 100
SWIDTH 541 0
DWIDTH 13 0
BBX 12 19 1 0
BITMAP
FFC0
FFE0
FFF0
FFF0
78F0
78F0
78F0
78F0
78F0
78F0
78F0
78F0
78F0
78F0
78F0
FFF0
FFF0
FFE0
FFC0
ENDCHAR
STARTCHAR e
ENCODING 101
SWIDTH 541 0
DWIDTH 13 0
BBX 11 19 1 0
BITMAP
FFE0
FFE0
FFE0
FFE0
79E0
7800
7800
7F80
7F80
7F80
7F80
7800
7800
7800
79E0
FFE0
FFE0
FFE0
FFE0
ENDCHAR
STARTCHAR f
ENCODING 102
SWIDTH 541 0
DWIDTH 13 0
BBX 11 19 1 0
BITMAP
FFE0
FFE0
FFE0
FFE0
79E0
7800
7800
7F80
7F80
7F80
7F80
7800
7800
7800
7800
F800
F800
F800
F800
ENDCHAR
STARTCHAR g
ENCODING 103
SWIDTH 500 0
DWIDTH 12 0
BBX 11 19 1 0
BITMAP
3F80
FFC0
FFE0
FFE0
F1E0
F000
F000
F7C0
F7E0
F7E0
F7E0
F1E0
F1E0
F1E0
F1E0
FFE0
FFE0
FFC0
7F80
ENDCHAR
STARTCHAR h
ENCODING 104
SWIDTH 583 0
DWIDTH 14 0
BBX 12 19 1 0
BITMAP
F9F0
F9F0
F9F0
F9F0
78F0
78F0
78F0
7FF0
7FF0
7FF0
7FF0
78F0
78F0
78F0
78F0
F9F0
F9F0
F9F0
F9F0
ENDCHAR
STARTCHAR i
ENCODING 105
SWIDTH 291 0
DWIDTH 7 0
BBX 5 19 1 0
BITMAP
F8
F8
F8
F8
78
78
78
78
78
78
78
78
78
78
78
F8
F8
F8
F8
ENDCHAR
STARTCHAR j
ENCODING 106
SWIDTH 541 0
DWIDTH 13 0
BBX 11 19 1 0
BITMAP
03E0
03E0
03E0
03E0
03C0
03C0
03C0
03C0
03C0
03C0
03C0
03C0
03C0
03C0
F3C0
FFC0
FFC0
FFC0
7F00
ENDCHAR
STARTCHAR k
ENCODING 107
SWIDTH 625 0
DWIDTH 15 0
BBX 13 19 1 0
BITMAP
F9F8
F9F8
F9F8
F9F8
79E0
7BE0
7FC0
7F80
7F00
7F80
7F80
7FC0
7BC0
79E0
79E0
F9F8
F9F8
F9F8
F9F8
ENDCHAR
STARTCHAR l
ENCODING 108
SWIDTH 500 0
DWIDTH 12 0
BBX 11 19 1 0
BITMAP
F800
F800
F800
F800
7800
7800
7800
7800
7800
7800
7800
7800
7800
7800
79E0
FFE0
FFE0
FFE0
FFE0
ENDCHAR
STARTCHAR m
ENCODING 109
SWIDTH 708 0
DWIDTH 17 0
BBX 15 19 1 0
BITMAP
F83E
F83E
FC7E
FC7E
7EFC
7EFC
7FFC
7FFC
7FFC
7FFC
7FFC
7BBC
7BBC
793C
783C
F83E
F83E
F83E
F83E
ENDCHAR
STARTCHAR n
ENCODING 110
SWIDTH 625 0
DWIDTH 15 0
BBX 13 19 1 0
BITMAP
F8F8
F8F8
FCF8
FCF8
7EF0
7EF0
7EF0
7FF0
7FF0
7FF0
7FF0
7FF0
7BF0
7BF0
7BF0
F9F0
F9F0
F8F0
F8F0
ENDCHAR
STARTCHAR o
ENCODING 111
SWIDTH 500 0
DWIDTH 12 0
BBX 11 19 1 0
BITMAP
7F80
FFC0
FFE0
FFE0
F1E0
F1E0
F1E0
F1E0
F1E0
F1E0
F1E0
F1E0
F1E0
F1E0
F1E0
FFE0
FFE0
FFC0
7F80
ENDCHAR
STARTCHAR p
ENCODING 112
SWIDTH 541 0
DWIDTH 13 0
BBX 12 19 1 0
BITMAP
FFC0
FFE0
FFF0
FFF0
78F0
78F0
78F0
78F0
78F0
7FF0
7FE0
7FC0
7F80
7800
7800
F800
F800
F800
F800
ENDCHAR
STARTCHAR q
ENCODING 113
SWIDTH 500 0
DWIDTH 12 0
BBX 11 20 1 -1
BITMAP
7F80
FFC0
FFE0
FFE0
F1E0
F1E0
F1E0
F1E0
F1E0
F1E0
F1E0
F1E0
F1E0
F1E0
F1E0
F1E0
FFE0
FFC0
7F80
0780
ENDCHAR
STARTCHAR r
ENCODING 114
SWIDTH 583 0
DWIDTH 14 0
BBX 12 19 1 0
BITMAP
FFC0
FFE0
FFF0
FFF0
78F0
78F0
78F0
7FF0
7FE0
7FE0
7FC0
7F80
7BC0
7BC0
7BC0
F9F0
F9F0
F8F0
F8F0
ENDCHAR
STARTCHAR s
ENCODING 115
SWIDTH 500 0
DWIDTH 12 0
BBX 11 19 1 0
BITMAP
3F80
FFC0
FFE0
FFE0
F1E0
F000
F000
FF00
FF80
FFC0
3FE0
01E0
01E0
01E0
F1E0
FFE0
FFE0
FFC0
3F80
ENDCHAR
STARTCHAR t
ENCODING 116
SWIDTH 583 0
DWIDTH 14 0
BBX 12 19 1 0
BITMAP
FFF0
FFF0
FFF0
FFF0
FFF0
0F00
0F00
0F00
0F00
0F00
0F00
0F00
0F00
0F00
0F00
0F80
0F80
0F80
0F80
ENDCHAR
STARTCHAR u
ENCODING 117
SWIDTH 583 0
DWIDTH 14 0
BBX 12 19 1 0
BITMAP
F9F0
F9F0
F9F0
F9F0
78F0
78F0
78F0
78F0
78F0
78F0
78F0
78F0
78F0
78F0
78F0
7FF0
7FF0
7FE0
3FC0
ENDCHAR
STARTCHAR v
ENCODING 118
SWIDTH 583 0
DWIDTH 14 0
BBX 12 19 1 0
BITMAP
F9F0
F9F0
F9F0
F9F0
79E0
79E0
39C0
39C0
3FC0
3FC0
3FC0
1F80
1F80
1F80
1F80
1F80
0F00
0F00
0F00
ENDCHAR
STARTCHAR w
ENCODING 119
SWIDTH 791 0
DWIDTH 19 0
BBX 17 19 1 0
BITMAP
F9CF80
F9CF80
FBEF80
FBEF80
73EF00
7BEF00
7BEF00
3FFE00
3FFE00
3FFE00
3FFE00
3FFE00
3F7E00
3F7E00
1F7C00
1F7C00
1E3C00
1E3C00
1E3C00
ENDCHAR
STARTCHAR x
ENCODING 120
SWIDTH 583 0
DWIDTH 14 0
BBX 12 19 1 0
BITMAP
F9F0
F9F0
F9F0
F9F0
79E0
3FC0
3FC0
1F80
1F80
0F00
1F80
1F80
3FC0
3FC0
79E0
F9F0
F9F0
F9F0
F9F0
ENDCHAR
STARTCHAR y
ENCODING 121
SWIDTH 583 0
DWIDTH 14 0
BBX 12 19 1 0
BITMAP
F9F0
F9F0
F9F0
F9F0
79C0
3BC0
3FC0
3F80
1F80
1F00
1F00
0F00
0F00
0F00
0F00
1F00
1F00
1F00
1F00
ENDCHAR
STARTCHAR z
ENCODING 122
SWIDTH 458 0
DWIDTH 11 0
BBX 11 19 0 0
BITMAP
7FE0
7FE0
7FC0
7FC0
7B80
0780
0780
0F00
0F00
0F00
1E00
1E00
3C00
3C00
3DE0
7FE0
7FE0
FFE0
FFE0
ENDCHAR
STARTCHAR {
ENCODING 123
SWIDTH 500 0
DWIDTH 12 0
BBX 11 19 1 0
BITMAP
3F80
FFC0
FFE0
FFE0
F1E0
01E0
03E0
07C0
0F80
1F00
3E00
7C00
F800
F000
F1E0
FFE0
FFE0
FFE0
FFE0
ENDCHAR
STARTCHAR |
ENCODING 124
SWIDTH 500 0
DWIDTH 12 0
BBX 12 0 0 0
BITMAP
ENDCHAR
STARTCHAR }
ENCODING 125
SWIDTH 500 0
DWIDTH 12 0
BBX 10 19 1 0
BITMAP
FFC0
FFC0
FFC0
FFC0
F3C0
F000
FF80
FFC0
FFC0
FFC0
03C0
03C0
03C0
03C0
F3C0
FFC0
FFC0
FFC0
7F80
ENDCHAR
STARTCHAR ~
ENCODING 126
SWIDTH 541 0
DWIDTH 13 0
BBX 13 0 0 0
BITMAP
ENDCHAR
ENDFONT
